<svg xmlns="http://www.w3.org/2000/svg" viewBox="0 0 48 48" id="radar"><path d="M18.32 6.471a.5.5 0 1 1 .379.6.5.5 0 0 1-.379-.6Zm-6.02 4.018a.494.494 0 0 0 .313-.111 18.173 18.173 0 0 1 4.208-2.544.5.5 0 1 0-.4-.918A19.2 19.2 0 0 0 11.982 9.6a.5.5 0 0 0 .315.889Zm27.363 13.527a.5.5 0 0 0-.5.5 15.21 15.21 0 1 1-5.509-11.668l-2.839 3.209A10.531 10.531 0 0 0 25.83 13.8a1.858 1.858 0 0 0-3.66.01h-.01A10.867 10.867 0 0 0 24 35.39a10.7 10.7 0 0 0 5.48-1.5 1.4 1.4 0 0 0 .83.27 1.421 1.421 0 0 0 1.43-1.42 1.44 1.44 0 0 0-.09-.51 10.888 10.888 0 0 0 3.23-7.71.5.5 0 0 0-.5-.5.5.5 0 0 0-.5.5 9.868 9.868 0 0 1-2.9 6.96 1.389 1.389 0 0 0-.67-.17 1.428 1.428 0 0 0-1.42 1.43 1.124 1.124 0 0 0 .04.32A9.772 9.772 0 0 1 24 34.39a9.872 9.872 0 0 1-1.74-19.59 1.853 1.853 0 0 0 3.48-.01 9.684 9.684 0 0 1 4.409 2.019L27.3 20.03a5.572 5.572 0 1 0 2.292 4.486.5.5 0 0 0-1 0 4.638 4.638 0 1 1-1.954-3.737l-3.013 3.406a.5.5 0 0 0 .75.662l3.374-3.815 3.473-3.926.008-.006.02-.02.01-.017 3.474-3.927c0-.006.012-.008.017-.013a.5.5 0 0 0-.042-.706 16.158 16.158 0 1 0 5.459 12.1.5.5 0 0 0-.505-.501ZM32.09 40.932a.5.5 0 1 0 .379.6.5.5 0 0 0-.379-.6Zm4.09-2.68a.5.5 0 1 0 .378.6.5.5 0 0 0-.378-.6Zm-1.911 1.438a.5.5 0 1 0 .378.6.5.5 0 0 0-.378-.6ZM9.46 24.52A1.52 1.52 0 1 0 10.98 23a1.517 1.517 0 0 0-1.52 1.52Z"></path></svg>